<svg width="319" height="88" viewBox="0 0 319 88" fill="none" xmlns="http://www.w3.org/2000/svg">
<g clip-path="url(#clip0_1_169)">
<rect x="0.415527" width="309.111" height="87.9902" rx="43.9951" fill="white"/>
<rect x="-19.1455" y="-130.561" width="349.122" height="349.122" fill="url(#paint0_angular_1_169)"/>
<rect x="-3.53418" y="2.84326" width="316.481" height="82.3134" rx="41.1567" fill="#070B1D"/>
</g>
<rect x="1.12513" y="0.709598" width="316.481" height="86.571" rx="43.2855" stroke="url(#paint1_linear_1_169)" stroke-opacity="0.4" stroke-width="1.4192"/>
<g clip-path="url(#clip1_1_169)">
<path d="M85.5596 44.5096C85.0646 44.3446 85.0646 43.6456 85.5596 43.4807L88.4648 42.5133C89.1034 42.3003 89.6837 41.9416 90.1595 41.4654C90.6354 40.9893 90.9939 40.4088 91.2065 39.7701L92.1739 36.8664C92.3388 36.3715 93.0378 36.3715 93.2027 36.8664L94.1701 39.7716C94.3831 40.4102 94.7418 40.9905 95.218 41.4664C95.6941 41.9422 96.2746 42.3007 96.9133 42.5133L99.817 43.4807C99.9254 43.5162 100.02 43.5851 100.087 43.6775C100.154 43.7699 100.19 43.881 100.19 43.9951C100.19 44.1092 100.154 44.2203 100.087 44.3127C100.02 44.4051 99.9254 44.474 99.817 44.5096L96.9118 45.4769C96.2734 45.6897 95.6932 46.0483 95.2173 46.5241C94.7414 47 94.3829 47.5802 94.1701 48.2186L93.2027 51.1238C93.1672 51.2322 93.0983 51.3266 93.0059 51.3935C92.9135 51.4604 92.8024 51.4964 92.6883 51.4964C92.5742 51.4964 92.4631 51.4604 92.3707 51.3935C92.2783 51.3266 92.2094 51.2322 92.1739 51.1238L91.2065 48.2186C90.9937 47.5802 90.6351 47 90.1593 46.5241C89.6834 46.0483 89.1032 45.6897 88.4648 45.4769L85.5596 44.5096ZM77.9119 50.3034C77.847 50.2819 77.7905 50.2405 77.7504 50.185C77.7104 50.1295 77.6888 50.0629 77.6888 49.9944C77.6888 49.926 77.7104 49.8593 77.7504 49.8039C77.7905 49.7484 77.847 49.707 77.9119 49.6855L79.6548 49.105C80.4317 48.8456 81.0406 48.2366 81.3001 47.4597L81.8805 45.7169C81.902 45.652 81.9434 45.5954 81.9989 45.5554C82.0544 45.5153 82.121 45.4938 82.1895 45.4938C82.2579 45.4938 82.3246 45.5153 82.38 45.5554C82.4355 45.5954 82.4769 45.652 82.4984 45.7169L83.0789 47.4597C83.2065 47.8429 83.4217 48.1911 83.7073 48.4766C83.9928 48.7622 84.341 48.9774 84.7242 49.105L86.467 49.6855C86.5319 49.707 86.5885 49.7484 86.6285 49.8039C86.6686 49.8593 86.6901 49.926 86.6901 49.9944C86.6901 50.0629 86.6686 50.1295 86.6285 50.185C86.5885 50.2405 86.5319 50.2819 86.467 50.3034L84.7242 50.8838C84.341 51.0115 83.9928 51.2266 83.7073 51.5122C83.4217 51.7978 83.2065 52.146 83.0789 52.5292L82.4984 54.272C82.4769 54.3369 82.4355 54.3934 82.38 54.4335C82.3246 54.4736 82.2579 54.4951 82.1895 54.4951C82.121 54.4951 82.0544 54.4736 81.9989 54.4335C81.9434 54.3934 81.902 54.3369 81.8805 54.272L81.3001 52.5292C81.1724 52.146 80.9573 51.7978 80.6717 51.5122C80.3861 51.2266 80.0379 51.0115 79.6548 50.8838L77.9119 50.3034ZM76.3386 39.7011C76.2959 39.6863 76.2589 39.6585 76.2327 39.6217C76.2065 39.5849 76.1924 39.5408 76.1924 39.4956C76.1924 39.4504 76.2065 39.4063 76.2327 39.3695C76.2589 39.3327 76.2959 39.3049 76.3386 39.2901L77.4995 38.9032C78.0184 38.7307 78.4249 38.3242 78.5974 37.8053L78.9843 36.6444C78.9991 36.6017 79.0269 36.5647 79.0637 36.5385C79.1005 36.5123 79.1446 36.4982 79.1898 36.4982C79.235 36.4982 79.2791 36.5123 79.3159 36.5385C79.3527 36.5647 79.3805 36.6017 79.3953 36.6444L79.7822 37.8053C79.8673 38.061 80.0108 38.2934 80.2014 38.484C80.392 38.6746 80.6244 38.8181 80.8801 38.9032L82.041 39.2901C82.0837 39.3049 82.1207 39.3327 82.1469 39.3695C82.1731 39.4063 82.1872 39.4504 82.1872 39.4956C82.1872 39.5408 82.1731 39.5849 82.1469 39.6217C82.1207 39.6585 82.0837 39.6863 82.041 39.7011L80.8801 40.088C80.6244 40.1731 80.392 40.3166 80.2014 40.5072C80.0108 40.6978 79.8673 40.9302 79.7822 41.1859L79.3953 42.3453C79.3805 42.388 79.3527 42.425 79.3159 42.4512C79.2791 42.4774 79.235 42.4915 79.1898 42.4915C79.1446 42.4915 79.1005 42.4774 79.0637 42.4512C79.0269 42.425 78.9991 42.388 78.9843 42.3453L78.5974 41.1844C78.4249 40.6655 78.0184 40.259 77.4995 40.0865L76.3401 39.7011L76.3386 39.7011Z" fill="white"/>
</g>
<path d="M127.444 43.6026V50.6751C127.178 51.016 126.758 51.386 126.184 51.7852C125.619 52.1843 124.879 52.5294 123.964 52.8205C123.049 53.1032 121.927 53.2446 120.596 53.2446C119.44 53.2446 118.384 53.0533 117.428 52.6708C116.472 52.28 115.648 51.7104 114.958 50.962C114.268 50.2135 113.736 49.2988 113.362 48.2178C112.987 47.1368 112.8 45.9019 112.8 44.5132V43.3158C112.8 41.927 112.975 40.6922 113.324 39.6112C113.682 38.5301 114.189 37.6154 114.846 36.867C115.511 36.1186 116.305 35.549 117.228 35.1581C118.16 34.7673 119.199 34.5719 120.347 34.5719C121.885 34.5719 123.149 34.8255 124.139 35.3328C125.137 35.84 125.902 36.5385 126.434 37.4283C126.966 38.3098 127.299 39.3243 127.432 40.4718H124.089C123.997 39.8398 123.814 39.2868 123.54 38.8129C123.266 38.3306 122.875 37.9563 122.367 37.6902C121.869 37.4158 121.22 37.2786 120.422 37.2786C119.748 37.2786 119.153 37.4117 118.638 37.6778C118.122 37.9439 117.69 38.3306 117.341 38.8378C116.991 39.3451 116.725 39.9729 116.542 40.7213C116.368 41.4697 116.28 42.3262 116.28 43.2908V44.5132C116.28 45.4861 116.38 46.3509 116.58 47.1077C116.779 47.8561 117.066 48.4881 117.44 49.0036C117.823 49.5109 118.293 49.8976 118.85 50.1637C119.415 50.4214 120.056 50.5503 120.771 50.5503C121.419 50.5503 121.956 50.4963 122.38 50.3882C122.812 50.2718 123.157 50.1345 123.415 49.9766C123.673 49.8186 123.873 49.6647 124.014 49.515V46.1098H120.409V43.6026H127.444ZM136.5 53.2446C135.477 53.2446 134.558 53.0783 133.743 52.7456C132.928 52.413 132.234 51.9515 131.66 51.3611C131.095 50.7624 130.658 50.068 130.35 49.278C130.051 48.4797 129.901 47.6232 129.901 46.7085V46.2096C129.901 45.1701 130.051 44.2263 130.35 43.3781C130.65 42.5216 131.074 41.7857 131.623 41.1703C132.172 40.555 132.828 40.081 133.594 39.7484C134.359 39.4157 135.203 39.2494 136.126 39.2494C137.082 39.2494 137.926 39.4116 138.658 39.7359C139.389 40.0519 140.001 40.5009 140.491 41.083C140.982 41.6651 141.352 42.3636 141.601 43.1785C141.851 43.9852 141.976 44.8791 141.976 45.8603V47.2449H131.398V44.9747H138.733V44.7252C138.716 44.2014 138.616 43.7232 138.433 43.2908C138.25 42.8501 137.968 42.5008 137.585 42.243C137.202 41.9769 136.708 41.8439 136.101 41.8439C135.61 41.8439 135.182 41.952 134.816 42.1682C134.458 42.3761 134.159 42.6755 133.918 43.0663C133.685 43.4488 133.51 43.9062 133.394 44.4384C133.278 44.9706 133.219 45.561 133.219 46.2096V46.7085C133.219 47.274 133.294 47.7979 133.444 48.2802C133.602 48.7625 133.831 49.1824 134.13 49.54C134.438 49.8892 134.803 50.1637 135.228 50.3632C135.66 50.5545 136.151 50.6501 136.699 50.6501C137.39 50.6501 138.013 50.5171 138.57 50.251C139.136 49.9766 139.626 49.5732 140.042 49.041L141.701 50.7624C141.418 51.1782 141.036 51.5773 140.554 51.9598C140.08 52.3423 139.506 52.6542 138.832 52.8953C138.159 53.1282 137.381 53.2446 136.5 53.2446ZM150.57 39.4989V41.8688H142.836V39.4989H150.57ZM144.907 36.181H148.212V49.1034C148.212 49.5026 148.266 49.8102 148.374 50.0264C148.483 50.2427 148.645 50.3882 148.861 50.463C149.077 50.5379 149.335 50.5753 149.634 50.5753C149.851 50.5753 150.05 50.5628 150.233 50.5379C150.416 50.5129 150.57 50.488 150.695 50.463L150.707 52.9328C150.433 53.0242 150.121 53.0991 149.772 53.1573C149.431 53.2155 149.044 53.2446 148.611 53.2446C147.871 53.2446 147.223 53.1199 146.666 52.8704C146.108 52.6126 145.676 52.201 145.368 51.6355C145.061 51.0617 144.907 50.305 144.907 49.3654V36.181ZM168.881 48.2802C168.881 47.9309 168.827 47.6191 168.719 47.3447C168.619 47.0619 168.432 46.8083 168.157 46.5838C167.891 46.3509 167.513 46.1264 167.022 45.9102C166.54 45.6857 165.916 45.4529 165.151 45.2117C164.303 44.9456 163.513 44.6463 162.781 44.3136C162.05 43.981 161.405 43.5943 160.848 43.1536C160.299 42.7129 159.871 42.2056 159.563 41.6318C159.255 41.0498 159.102 40.3762 159.102 39.6112C159.102 38.8627 159.26 38.1809 159.576 37.5655C159.9 36.9502 160.357 36.4221 160.948 35.9814C161.538 35.5323 162.232 35.1873 163.031 34.9461C163.837 34.7049 164.727 34.5844 165.7 34.5844C167.047 34.5844 168.211 34.8297 169.193 35.3203C170.182 35.8109 170.947 36.4762 171.488 37.316C172.028 38.1559 172.298 39.0997 172.298 40.1475H168.881C168.881 39.582 168.76 39.0831 168.519 38.6507C168.286 38.2183 167.929 37.8773 167.446 37.6279C166.972 37.3784 166.374 37.2537 165.65 37.2537C164.952 37.2537 164.37 37.3576 163.904 37.5655C163.447 37.7734 163.101 38.0561 162.869 38.4137C162.644 38.7713 162.532 39.1704 162.532 39.6112C162.532 39.9438 162.611 40.2431 162.769 40.5092C162.927 40.767 163.164 41.0123 163.48 41.2452C163.796 41.4697 164.187 41.6817 164.652 41.8813C165.126 42.0726 165.675 42.2638 166.299 42.4551C167.297 42.7545 168.17 43.0871 168.918 43.453C169.675 43.8188 170.303 44.2346 170.802 44.7003C171.309 45.166 171.687 45.6899 171.937 46.272C172.195 46.854 172.323 47.5151 172.323 48.2552C172.323 49.0369 172.17 49.7354 171.862 50.3508C171.554 50.9661 171.114 51.49 170.54 51.9224C169.966 52.3548 169.276 52.6833 168.469 52.9078C167.671 53.1323 166.777 53.2446 165.787 53.2446C164.906 53.2446 164.033 53.1282 163.168 52.8953C162.311 52.6542 161.534 52.2966 160.835 51.8226C160.137 51.3403 159.58 50.7333 159.164 50.0015C158.748 49.2614 158.54 48.3966 158.54 47.407H161.983C161.983 47.9808 162.074 48.4714 162.257 48.8789C162.449 49.278 162.715 49.6065 163.056 49.8643C163.405 50.1138 163.812 50.2967 164.278 50.4131C164.744 50.5295 165.247 50.5877 165.787 50.5877C166.486 50.5877 167.06 50.4921 167.509 50.3009C167.966 50.1013 168.307 49.8269 168.532 49.4776C168.764 49.1284 168.881 48.7292 168.881 48.2802ZM181.105 39.4989V41.8688H173.371V39.4989H181.105ZM175.442 36.181H178.747V49.1034C178.747 49.5026 178.801 49.8102 178.909 50.0264C179.017 50.2427 179.18 50.3882 179.396 50.463C179.612 50.5379 179.87 50.5753 180.169 50.5753C180.385 50.5753 180.585 50.5628 180.768 50.5379C180.951 50.5129 181.105 50.488 181.229 50.463L181.242 52.9328C180.968 53.0242 180.656 53.0991 180.306 53.1573C179.965 53.2155 179.579 53.2446 179.146 53.2446C178.406 53.2446 177.758 53.1199 177.201 52.8704C176.643 52.6126 176.211 52.201 175.903 51.6355C175.596 51.0617 175.442 50.305 175.442 49.3654V36.181ZM190.734 50.1262V43.902C190.734 43.4446 190.655 43.0497 190.497 42.717C190.339 42.3844 190.098 42.1266 189.774 41.9437C189.449 41.7607 189.038 41.6693 188.539 41.6693C188.098 41.6693 187.711 41.7441 187.379 41.8938C187.055 42.0435 186.805 42.2555 186.63 42.5299C186.456 42.796 186.368 43.1037 186.368 43.453H183.063C183.063 42.8958 183.196 42.3678 183.462 41.8688C183.728 41.3616 184.107 40.9125 184.597 40.5217C185.096 40.1226 185.691 39.8107 186.381 39.5862C187.079 39.3617 187.861 39.2494 188.726 39.2494C189.749 39.2494 190.659 39.4241 191.458 39.7733C192.264 40.1142 192.896 40.6298 193.354 41.32C193.819 42.0102 194.052 42.8792 194.052 43.927V49.8144C194.052 50.488 194.094 51.0659 194.177 51.5482C194.268 52.0222 194.401 52.4338 194.576 52.7831V52.9951H191.221C191.063 52.6542 190.942 52.2218 190.859 51.6979C190.776 51.1657 190.734 50.6418 190.734 50.1262ZM191.196 44.7751L191.221 46.7335H189.138C188.622 46.7335 188.169 46.7875 187.778 46.8956C187.387 46.9954 187.067 47.1451 186.818 47.3447C186.568 47.5359 186.381 47.7688 186.256 48.0432C186.131 48.3093 186.069 48.6128 186.069 48.9537C186.069 49.2864 186.144 49.5857 186.294 49.8518C186.452 50.1179 186.676 50.33 186.967 50.488C187.267 50.6376 187.616 50.7125 188.015 50.7125C188.597 50.7125 189.104 50.5961 189.537 50.3632C189.969 50.1221 190.306 49.831 190.547 49.4901C190.788 49.1492 190.917 48.8248 190.934 48.5172L191.882 49.9391C191.765 50.2801 191.591 50.6418 191.358 51.0243C191.125 51.4068 190.826 51.7644 190.46 52.097C190.094 52.4297 189.653 52.7041 189.138 52.9203C188.622 53.1365 188.023 53.2446 187.341 53.2446C186.468 53.2446 185.687 53.07 184.996 52.7207C184.306 52.3714 183.762 51.8933 183.362 51.2863C182.963 50.6792 182.764 49.989 182.764 49.2157C182.764 48.5005 182.897 47.8685 183.163 47.3197C183.429 46.7709 183.824 46.3094 184.348 45.9352C184.872 45.5527 185.52 45.2658 186.294 45.0745C187.075 44.8749 187.969 44.7751 188.975 44.7751H191.196ZM200.314 42.2555V52.9951H197.021V39.4989H200.139L200.314 42.2555ZM204.418 39.4116L204.368 42.48C204.185 42.4468 203.977 42.4218 203.744 42.4052C203.519 42.3886 203.307 42.3802 203.108 42.3802C202.601 42.3802 202.156 42.4509 201.773 42.5923C201.391 42.7253 201.07 42.9208 200.813 43.1785C200.563 43.4363 200.372 43.7523 200.239 44.1265C200.106 44.4924 200.031 44.9082 200.014 45.3739L199.303 45.2866C199.303 44.43 199.391 43.6359 199.565 42.9041C199.74 42.1724 199.994 41.5321 200.326 40.9832C200.659 40.4344 201.075 40.0103 201.574 39.7109C202.081 39.4033 202.663 39.2494 203.32 39.2494C203.503 39.2494 203.698 39.2661 203.906 39.2993C204.122 39.3243 204.293 39.3617 204.418 39.4116ZM213.236 39.4989V41.8688H205.503V39.4989H213.236ZM207.573 36.181H210.879V49.1034C210.879 49.5026 210.933 49.8102 211.041 50.0264C211.149 50.2427 211.311 50.3882 211.527 50.463C211.744 50.5379 212.001 50.5753 212.301 50.5753C212.517 50.5753 212.716 50.5628 212.899 50.5379C213.082 50.5129 213.236 50.488 213.361 50.463L213.373 52.9328C213.099 53.0242 212.787 53.0991 212.438 53.1573C212.097 53.2155 211.71 53.2446 211.278 53.2446C210.538 53.2446 209.889 53.1199 209.332 52.8704C208.775 52.6126 208.342 52.201 208.035 51.6355C207.727 51.0617 207.573 50.305 207.573 49.3654V36.181ZM221.494 53.2446C220.471 53.2446 219.552 53.0783 218.737 52.7456C217.922 52.413 217.228 51.9515 216.654 51.3611C216.088 50.7624 215.652 50.068 215.344 49.278C215.045 48.4797 214.895 47.6232 214.895 46.7085V46.2096C214.895 45.1701 215.045 44.2263 215.344 43.3781C215.644 42.5216 216.068 41.7857 216.616 41.1703C217.165 40.555 217.822 40.081 218.587 39.7484C219.352 39.4157 220.196 39.2494 221.119 39.2494C222.076 39.2494 222.92 39.4116 223.651 39.7359C224.383 40.0519 224.994 40.5009 225.485 41.083C225.976 41.6651 226.346 42.3636 226.595 43.1785C226.845 43.9852 226.969 44.8791 226.969 45.8603V47.2449H216.392V44.9747H223.726V44.7252C223.71 44.2014 223.61 43.7232 223.427 43.2908C223.244 42.8501 222.961 42.5008 222.579 42.243C222.196 41.9769 221.701 41.8439 221.094 41.8439C220.604 41.8439 220.176 41.952 219.81 42.1682C219.452 42.3761 219.153 42.6755 218.912 43.0663C218.679 43.4488 218.504 43.9062 218.388 44.4384C218.271 44.9706 218.213 45.561 218.213 46.2096V46.7085C218.213 47.274 218.288 47.7979 218.438 48.2802C218.596 48.7625 218.824 49.1824 219.124 49.54C219.431 49.8892 219.797 50.1637 220.221 50.3632C220.654 50.5545 221.144 50.6501 221.693 50.6501C222.383 50.6501 223.007 50.5171 223.564 50.251C224.13 49.9766 224.62 49.5732 225.036 49.041L226.695 50.7624C226.412 51.1782 226.03 51.5773 225.547 51.9598C225.073 52.3423 224.5 52.6542 223.826 52.8953C223.153 53.1282 222.375 53.2446 221.494 53.2446ZM237.272 50.1262V33.836H240.59V52.9951H237.597L237.272 50.1262ZM228.603 46.4092V46.1472C228.603 45.1161 228.72 44.1806 228.953 43.3407C229.194 42.4925 229.543 41.7649 230 41.1579C230.458 40.5508 231.011 40.081 231.659 39.7484C232.316 39.4157 233.061 39.2494 233.892 39.2494C234.699 39.2494 235.401 39.4116 236 39.7359C236.607 40.0602 237.123 40.5217 237.547 41.1204C237.979 41.7192 238.324 42.4301 238.582 43.2534C238.84 44.0683 239.027 44.9664 239.143 45.9476V46.6586C239.027 47.6149 238.84 48.4922 238.582 49.2905C238.324 50.0888 237.979 50.7873 237.547 51.386C237.123 51.9765 236.607 52.4338 236 52.7581C235.393 53.0824 234.682 53.2446 233.867 53.2446C233.044 53.2446 232.304 53.0741 231.647 52.7332C230.998 52.3922 230.445 51.9141 229.988 51.2987C229.539 50.6834 229.194 49.9599 228.953 49.1284C228.72 48.2968 228.603 47.3904 228.603 46.4092ZM231.909 46.1472V46.4092C231.909 46.9913 231.959 47.5359 232.059 48.0432C232.158 48.5504 232.321 48.9995 232.545 49.3903C232.77 49.7728 233.056 50.0722 233.406 50.2884C233.763 50.5046 234.196 50.6127 234.703 50.6127C235.352 50.6127 235.884 50.4713 236.3 50.1886C236.724 49.8976 237.052 49.5026 237.285 49.0036C237.518 48.4964 237.667 47.9268 237.734 47.2948V45.3364C237.701 44.8375 237.613 44.376 237.472 43.9519C237.339 43.5278 237.148 43.1619 236.898 42.8542C236.657 42.5466 236.358 42.3054 236 42.1308C235.643 41.9562 235.218 41.8688 234.728 41.8688C234.221 41.8688 233.788 41.9811 233.431 42.2056C233.073 42.4218 232.782 42.7253 232.558 43.1162C232.333 43.507 232.167 43.9602 232.059 44.4758C231.959 44.9913 231.909 45.5485 231.909 46.1472Z" fill="white"/>
<defs>
<radialGradient id="paint0_angular_1_169" cx="0" cy="0" r="1" gradientUnits="userSpaceOnUse" gradientTransform="translate(155.416 43.9999) rotate(90) scale(174.561 174.561)">
<stop stop-color="white"/>
<stop offset="0.145432" stop-color="#070B1D"/>
<stop offset="0.853404" stop-color="#070B1D"/>
</radialGradient>
<linearGradient id="paint1_linear_1_169" x1="139.148" y1="-27.235" x2="55.2447" y2="182.866" gradientUnits="userSpaceOnUse">
<stop stop-color="white"/>
<stop offset="1" stop-color="white" stop-opacity="0"/>
</linearGradient>
<clipPath id="clip0_1_169">
<rect x="0.415527" width="309.111" height="87.9902" rx="43.9951" fill="white"/>
</clipPath>
<clipPath id="clip1_1_169">
<rect width="23.9973" height="23.9973" fill="white" transform="translate(76.1899 55.9939) rotate(-90)"/>
</clipPath>
</defs>
</svg>
